<?xml version="1.0" encoding="utf-8" ?>
<svg baseProfile="full" height="640px" version="1.1" width="640px" xmlns="http://www.w3.org/2000/svg" xmlns:ev="http://www.w3.org/2001/xml-events" xmlns:xlink="http://www.w3.org/1999/xlink"><defs /><rect fill="rgb(128,128,128)" height="20px" width="20px" x="80px" y="20px" /><rect fill="rgb(128,128,128)" height="20px" width="20px" x="540px" y="20px" /><rect fill="rgb(128,128,128)" height="20px" width="20px" x="120px" y="60px" /><rect fill="rgb(128,128,128)" height="20px" width="20px" x="300px" y="60px" /><rect fill="rgb(128,128,128)" height="20px" width="20px" x="320px" y="60px" /><rect fill="rgb(128,128,128)" height="20px" width="20px" x="500px" y="60px" /><rect fill="rgb(128,128,128)" height="20px" width="20px" x="140px" y="80px" /><rect fill="rgb(128,128,128)" height="20px" width="20px" x="280px" y="80px" /><rect fill="rgb(255,255,0)" height="20px" width="20px" x="300px" y="80px" /><rect fill="rgb(255,255,255)" height="20px" width="20px" x="320px" y="80px" /><rect fill="rgb(0,0,0)" height="20px" width="20px" x="340px" y="80px" /><rect fill="rgb(128,128,128)" height="20px" width="20px" x="480px" y="80px" /><rect fill="rgb(0,0,0)" height="20px" width="20px" x="160px" y="100px" /><rect fill="rgb(128,128,128)" height="20px" width="20px" x="280px" y="100px" /><rect fill="rgb(255,255,255)" height="20px" width="20px" x="300px" y="100px" /><rect fill="rgb(255,255,0)" height="20px" width="20px" x="320px" y="100px" /><rect fill="rgb(0,0,0)" height="20px" width="20px" x="340px" y="100px" /><rect fill="rgb(0,0,0)" height="20px" width="20px" x="460px" y="100px" /><rect fill="rgb(0,0,0)" height="20px" width="20px" x="180px" y="120px" /><rect fill="rgb(128,128,128)" height="20px" width="20px" x="280px" y="120px" /><rect fill="rgb(255,255,0)" height="20px" width="20px" x="300px" y="120px" /><rect fill="rgb(255,255,255)" height="20px" width="20px" x="320px" y="120px" /><rect fill="rgb(0,0,0)" height="20px" width="20px" x="340px" y="120px" /><rect fill="rgb(0,0,0)" height="20px" width="20px" x="440px" y="120px" /><rect fill="rgb(128,128,128)" height="20px" width="20px" x="240px" y="140px" /><rect fill="rgb(128,128,128)" height="20px" width="20px" x="260px" y="140px" /><rect fill="rgb(255,255,0)" height="20px" width="20px" x="280px" y="140px" /><rect fill="rgb(255,255,255)" height="20px" width="20px" x="300px" y="140px" /><rect fill="rgb(255,255,0)" height="20px" width="20px" x="320px" y="140px" /><rect fill="rgb(192,192,192)" height="20px" width="20px" x="340px" y="140px" /><rect fill="rgb(128,128,128)" height="20px" width="20px" x="360px" y="140px" /><rect fill="rgb(128,128,128)" height="20px" width="20px" x="380px" y="140px" /><rect fill="rgb(128,128,128)" height="20px" width="20px" x="220px" y="160px" /><rect fill="rgb(255,255,255)" height="20px" width="20px" x="240px" y="160px" /><rect fill="rgb(255,255,0)" height="20px" width="20px" x="260px" y="160px" /><rect fill="rgb(255,255,255)" height="20px" width="20px" x="280px" y="160px" /><rect fill="rgb(255,255,0)" height="20px" width="20px" x="300px" y="160px" /><rect fill="rgb(255,255,255)" height="20px" width="20px" x="320px" y="160px" /><rect fill="rgb(255,255,0)" height="20px" width="20px" x="340px" y="160px" /><rect fill="rgb(255,255,255)" height="20px" width="20px" x="360px" y="160px" /><rect fill="rgb(255,255,0)" height="20px" width="20px" x="380px" y="160px" /><rect fill="rgb(128,128,128)" height="20px" width="20px" x="400px" y="160px" /><rect fill="rgb(128,128,128)" height="20px" width="20px" x="200px" y="180px" /><rect fill="rgb(255,255,255)" height="20px" width="20px" x="220px" y="180px" /><rect fill="rgb(255,255,0)" height="20px" width="20px" x="240px" y="180px" /><rect fill="rgb(255,255,255)" height="20px" width="20px" x="260px" y="180px" /><rect fill="rgb(255,255,255)" height="20px" width="20px" x="280px" y="180px" /><rect fill="rgb(255,255,255)" height="20px" width="20px" x="300px" y="180px" /><rect fill="rgb(255,255,0)" height="20px" width="20px" x="320px" y="180px" /><rect fill="rgb(255,255,255)" height="20px" width="20px" x="340px" y="180px" /><rect fill="rgb(255,255,0)" height="20px" width="20px" x="360px" y="180px" /><rect fill="rgb(255,255,255)" height="20px" width="20px" x="380px" y="180px" /><rect fill="rgb(255,255,0)" height="20px" width="20px" x="400px" y="180px" /><rect fill="rgb(128,128,128)" height="20px" width="20px" x="420px" y="180px" /><rect fill="rgb(128,128,128)" height="20px" width="20px" x="180px" y="200px" /><rect fill="rgb(255,255,255)" height="20px" width="20px" x="200px" y="200px" /><rect fill="rgb(255,255,0)" height="20px" width="20px" x="220px" y="200px" /><rect fill="rgb(255,255,255)" height="20px" width="20px" x="240px" y="200px" /><rect fill="rgb(255,255,255)" height="20px" width="20px" x="260px" y="200px" /><rect fill="rgb(255,255,255)" height="20px" width="20px" x="280px" y="200px" /><rect fill="rgb(255,255,0)" height="20px" width="20px" x="300px" y="200px" /><rect fill="rgb(255,255,255)" height="20px" width="20px" x="320px" y="200px" /><rect fill="rgb(255,255,0)" height="20px" width="20px" x="340px" y="200px" /><rect fill="rgb(192,192,192)" height="20px" width="20px" x="360px" y="200px" /><rect fill="rgb(255,255,0)" height="20px" width="20px" x="380px" y="200px" /><rect fill="rgb(255,255,255)" height="20px" width="20px" x="400px" y="200px" /><rect fill="rgb(255,255,0)" height="20px" width="20px" x="420px" y="200px" /><rect fill="rgb(128,128,128)" height="20px" width="20px" x="440px" y="200px" /><rect fill="rgb(128,128,128)" height="20px" width="20px" x="180px" y="220px" /><rect fill="rgb(255,255,0)" height="20px" width="20px" x="200px" y="220px" /><rect fill="rgb(255,255,255)" height="20px" width="20px" x="220px" y="220px" /><rect fill="rgb(255,255,255)" height="20px" width="20px" x="240px" y="220px" /><rect fill="rgb(255,255,255)" height="20px" width="20px" x="260px" y="220px" /><rect fill="rgb(255,255,0)" height="20px" width="20px" x="280px" y="220px" /><rect fill="rgb(255,255,255)" height="20px" width="20px" x="300px" y="220px" /><rect fill="rgb(255,255,0)" height="20px" width="20px" x="320px" y="220px" /><rect fill="rgb(255,255,255)" height="20px" width="20px" x="340px" y="220px" /><rect fill="rgb(255,255,0)" height="20px" width="20px" x="360px" y="220px" /><rect fill="rgb(192,192,192)" height="20px" width="20px" x="380px" y="220px" /><rect fill="rgb(255,255,0)" height="20px" width="20px" x="400px" y="220px" /><rect fill="rgb(255,255,255)" height="20px" width="20px" x="420px" y="220px" /><rect fill="rgb(128,128,128)" height="20px" width="20px" x="440px" y="220px" /><rect fill="rgb(128,128,128)" height="20px" width="20px" x="160px" y="240px" /><rect fill="rgb(255,255,0)" height="20px" width="20px" x="180px" y="240px" /><rect fill="rgb(255,255,255)" height="20px" width="20px" x="200px" y="240px" /><rect fill="rgb(255,255,255)" height="20px" width="20px" x="220px" y="240px" /><rect fill="rgb(255,255,255)" height="20px" width="20px" x="240px" y="240px" /><rect fill="rgb(255,255,0)" height="20px" width="20px" x="260px" y="240px" /><rect fill="rgb(255,255,255)" height="20px" width="20px" x="280px" y="240px" /><rect fill="rgb(255,255,0)" height="20px" width="20px" x="300px" y="240px" /><rect fill="rgb(255,255,255)" height="20px" width="20px" x="320px" y="240px" /><rect fill="rgb(255,255,0)" height="20px" width="20px" x="340px" y="240px" /><rect fill="rgb(192,192,192)" height="20px" width="20px" x="360px" y="240px" /><rect fill="rgb(255,255,0)" height="20px" width="20px" x="380px" y="240px" /><rect fill="rgb(192,192,192)" height="20px" width="20px" x="400px" y="240px" /><rect fill="rgb(255,255,0)" height="20px" width="20px" x="420px" y="240px" /><rect fill="rgb(255,255,255)" height="20px" width="20px" x="440px" y="240px" /><rect fill="rgb(128,128,128)" height="20px" width="20px" x="460px" y="240px" /><rect fill="rgb(128,128,128)" height="20px" width="20px" x="160px" y="260px" /><rect fill="rgb(192,192,192)" height="20px" width="20px" x="180px" y="260px" /><rect fill="rgb(255,255,255)" height="20px" width="20px" x="200px" y="260px" /><rect fill="rgb(255,255,255)" height="20px" width="20px" x="220px" y="260px" /><rect fill="rgb(255,255,0)" height="20px" width="20px" x="240px" y="260px" /><rect fill="rgb(255,255,255)" height="20px" width="20px" x="260px" y="260px" /><rect fill="rgb(255,255,0)" height="20px" width="20px" x="280px" y="260px" /><rect fill="rgb(255,255,255)" height="20px" width="20px" x="300px" y="260px" /><rect fill="rgb(255,255,0)" height="20px" width="20px" x="320px" y="260px" /><rect fill="rgb(192,192,192)" height="20px" width="20px" x="340px" y="260px" /><rect fill="rgb(255,255,0)" height="20px" width="20px" x="360px" y="260px" /><rect fill="rgb(192,192,192)" height="20px" width="20px" x="380px" y="260px" /><rect fill="rgb(255,255,0)" height="20px" width="20px" x="400px" y="260px" /><rect fill="rgb(192,192,192)" height="20px" width="20px" x="420px" y="260px" /><rect fill="rgb(255,255,0)" height="20px" width="20px" x="440px" y="260px" /><rect fill="rgb(0,0,0)" height="20px" width="20px" x="460px" y="260px" /><rect fill="rgb(128,128,128)" height="20px" width="20px" x="0px" y="280px" /><rect fill="rgb(128,128,128)" height="20px" width="20px" x="40px" y="280px" /><rect fill="rgb(128,128,128)" height="20px" width="20px" x="60px" y="280px" /><rect fill="rgb(0,0,0)" height="20px" width="20px" x="80px" y="280px" /><rect fill="rgb(0,0,0)" height="20px" width="20px" x="100px" y="280px" /><rect fill="rgb(0,0,0)" height="20px" width="20px" x="120px" y="280px" /><rect fill="rgb(128,128,128)" height="20px" width="20px" x="160px" y="280px" /><rect fill="rgb(255,255,0)" height="20px" width="20px" x="180px" y="280px" /><rect fill="rgb(255,255,255)" height="20px" width="20px" x="200px" y="280px" /><rect fill="rgb(255,255,255)" height="20px" width="20px" x="220px" y="280px" /><rect fill="rgb(255,255,255)" height="20px" width="20px" x="240px" y="280px" /><rect fill="rgb(255,255,0)" height="20px" width="20px" x="260px" y="280px" /><rect fill="rgb(255,255,255)" height="20px" width="20px" x="280px" y="280px" /><rect fill="rgb(255,255,0)" height="20px" width="20px" x="300px" y="280px" /><rect fill="rgb(255,255,255)" height="20px" width="20px" x="320px" y="280px" /><rect fill="rgb(255,255,0)" height="20px" width="20px" x="340px" y="280px" /><rect fill="rgb(192,192,192)" height="20px" width="20px" x="360px" y="280px" /><rect fill="rgb(255,255,0)" height="20px" width="20px" x="380px" y="280px" /><rect fill="rgb(192,192,192)" height="20px" width="20px" x="400px" y="280px" /><rect fill="rgb(255,255,0)" height="20px" width="20px" x="420px" y="280px" /><rect fill="rgb(255,255,255)" height="20px" width="20px" x="440px" y="280px" /><rect fill="rgb(0,0,0)" height="20px" width="20px" x="460px" y="280px" /><rect fill="rgb(0,0,0)" height="20px" width="20px" x="500px" y="280px" /><rect fill="rgb(0,0,0)" height="20px" width="20px" x="520px" y="280px" /><rect fill="rgb(0,0,0)" height="20px" width="20px" x="540px" y="280px" /><rect fill="rgb(128,128,128)" height="20px" width="20px" x="560px" y="280px" /><rect fill="rgb(128,128,128)" height="20px" width="20px" x="580px" y="280px" /><rect fill="rgb(128,128,128)" height="20px" width="20px" x="620px" y="280px" /><rect fill="rgb(128,128,128)" height="20px" width="20px" x="160px" y="300px" /><rect fill="rgb(192,192,192)" height="20px" width="20px" x="180px" y="300px" /><rect fill="rgb(255,255,255)" height="20px" width="20px" x="200px" y="300px" /><rect fill="rgb(255,255,255)" height="20px" width="20px" x="220px" y="300px" /><rect fill="rgb(255,255,0)" height="20px" width="20px" x="240px" y="300px" /><rect fill="rgb(255,255,255)" height="20px" width="20px" x="260px" y="300px" /><rect fill="rgb(255,255,0)" height="20px" width="20px" x="280px" y="300px" /><rect fill="rgb(255,255,255)" height="20px" width="20px" x="300px" y="300px" /><rect fill="rgb(255,255,0)" height="20px" width="20px" x="320px" y="300px" /><rect fill="rgb(192,192,192)" height="20px" width="20px" x="340px" y="300px" /><rect fill="rgb(255,255,0)" height="20px" width="20px" x="360px" y="300px" /><rect fill="rgb(192,192,192)" height="20px" width="20px" x="380px" y="300px" /><rect fill="rgb(255,255,0)" height="20px" width="20px" x="400px" y="300px" /><rect fill="rgb(192,192,192)" height="20px" width="20px" x="420px" y="300px" /><rect fill="rgb(255,255,0)" height="20px" width="20px" x="440px" y="300px" /><rect fill="rgb(0,0,0)" height="20px" width="20px" x="460px" y="300px" /><rect fill="rgb(128,128,128)" height="20px" width="20px" x="160px" y="320px" /><rect fill="rgb(255,255,0)" height="20px" width="20px" x="180px" y="320px" /><rect fill="rgb(255,255,255)" height="20px" width="20px" x="200px" y="320px" /><rect fill="rgb(255,255,255)" height="20px" width="20px" x="220px" y="320px" /><rect fill="rgb(255,255,255)" height="20px" width="20px" x="240px" y="320px" /><rect fill="rgb(255,255,0)" height="20px" width="20px" x="260px" y="320px" /><rect fill="rgb(255,255,255)" height="20px" width="20px" x="280px" y="320px" /><rect fill="rgb(255,255,0)" height="20px" width="20px" x="300px" y="320px" /><rect fill="rgb(255,255,255)" height="20px" width="20px" x="320px" y="320px" /><rect fill="rgb(255,255,0)" height="20px" width="20px" x="340px" y="320px" /><rect fill="rgb(192,192,192)" height="20px" width="20px" x="360px" y="320px" /><rect fill="rgb(255,255,0)" height="20px" width="20px" x="380px" y="320px" /><rect fill="rgb(192,192,192)" height="20px" width="20px" x="400px" y="320px" /><rect fill="rgb(255,255,0)" height="20px" width="20px" x="420px" y="320px" /><rect fill="rgb(255,255,255)" height="20px" width="20px" x="440px" y="320px" /><rect fill="rgb(0,0,0)" height="20px" width="20px" x="460px" y="320px" /><rect fill="rgb(128,128,128)" height="20px" width="20px" x="160px" y="340px" /><rect fill="rgb(192,192,192)" height="20px" width="20px" x="180px" y="340px" /><rect fill="rgb(255,255,255)" height="20px" width="20px" x="200px" y="340px" /><rect fill="rgb(255,255,255)" height="20px" width="20px" x="220px" y="340px" /><rect fill="rgb(255,255,0)" height="20px" width="20px" x="240px" y="340px" /><rect fill="rgb(255,255,255)" height="20px" width="20px" x="260px" y="340px" /><rect fill="rgb(255,255,0)" height="20px" width="20px" x="280px" y="340px" /><rect fill="rgb(255,255,255)" height="20px" width="20px" x="300px" y="340px" /><rect fill="rgb(255,255,0)" height="20px" width="20px" x="320px" y="340px" /><rect fill="rgb(192,192,192)" height="20px" width="20px" x="340px" y="340px" /><rect fill="rgb(255,255,0)" height="20px" width="20px" x="360px" y="340px" /><rect fill="rgb(192,192,192)" height="20px" width="20px" x="380px" y="340px" /><rect fill="rgb(255,255,0)" height="20px" width="20px" x="400px" y="340px" /><rect fill="rgb(192,192,192)" height="20px" width="20px" x="420px" y="340px" /><rect fill="rgb(255,255,0)" height="20px" width="20px" x="440px" y="340px" /><rect fill="rgb(0,0,0)" height="20px" width="20px" x="460px" y="340px" /><rect fill="rgb(128,128,128)" height="20px" width="20px" x="160px" y="360px" /><rect fill="rgb(255,255,0)" height="20px" width="20px" x="180px" y="360px" /><rect fill="rgb(255,255,255)" height="20px" width="20px" x="200px" y="360px" /><rect fill="rgb(255,255,255)" height="20px" width="20px" x="220px" y="360px" /><rect fill="rgb(255,255,255)" height="20px" width="20px" x="240px" y="360px" /><rect fill="rgb(255,255,0)" height="20px" width="20px" x="260px" y="360px" /><rect fill="rgb(255,255,255)" height="20px" width="20px" x="280px" y="360px" /><rect fill="rgb(255,255,0)" height="20px" width="20px" x="300px" y="360px" /><rect fill="rgb(255,255,255)" height="20px" width="20px" x="320px" y="360px" /><rect fill="rgb(255,255,0)" height="20px" width="20px" x="340px" y="360px" /><rect fill="rgb(192,192,192)" height="20px" width="20px" x="360px" y="360px" /><rect fill="rgb(255,255,0)" height="20px" width="20px" x="380px" y="360px" /><rect fill="rgb(192,192,192)" height="20px" width="20px" x="400px" y="360px" /><rect fill="rgb(255,255,0)" height="20px" width="20px" x="420px" y="360px" /><rect fill="rgb(255,255,255)" height="20px" width="20px" x="440px" y="360px" /><rect fill="rgb(0,0,0)" height="20px" width="20px" x="460px" y="360px" /><rect fill="rgb(128,128,128)" height="20px" width="20px" x="140px" y="380px" /><rect fill="rgb(255,255,0)" height="20px" width="20px" x="160px" y="380px" /><rect fill="rgb(192,192,192)" height="20px" width="20px" x="180px" y="380px" /><rect fill="rgb(255,255,255)" height="20px" width="20px" x="200px" y="380px" /><rect fill="rgb(255,255,255)" height="20px" width="20px" x="220px" y="380px" /><rect fill="rgb(255,255,0)" height="20px" width="20px" x="240px" y="380px" /><rect fill="rgb(255,255,255)" height="20px" width="20px" x="260px" y="380px" /><rect fill="rgb(255,255,0)" height="20px" width="20px" x="280px" y="380px" /><rect fill="rgb(255,255,255)" height="20px" width="20px" x="300px" y="380px" /><rect fill="rgb(255,255,0)" height="20px" width="20px" x="320px" y="380px" /><rect fill="rgb(192,192,192)" height="20px" width="20px" x="340px" y="380px" /><rect fill="rgb(255,255,0)" height="20px" width="20px" x="360px" y="380px" /><rect fill="rgb(192,192,192)" height="20px" width="20px" x="380px" y="380px" /><rect fill="rgb(255,255,0)" height="20px" width="20px" x="400px" y="380px" /><rect fill="rgb(192,192,192)" height="20px" width="20px" x="420px" y="380px" /><rect fill="rgb(255,255,0)" height="20px" width="20px" x="440px" y="380px" /><rect fill="rgb(255,255,255)" height="20px" width="20px" x="460px" y="380px" /><rect fill="rgb(0,0,0)" height="20px" width="20px" x="480px" y="380px" /><rect fill="rgb(128,128,128)" height="20px" width="20px" x="120px" y="400px" /><rect fill="rgb(255,255,0)" height="20px" width="20px" x="140px" y="400px" /><rect fill="rgb(192,192,192)" height="20px" width="20px" x="160px" y="400px" /><rect fill="rgb(255,255,0)" height="20px" width="20px" x="180px" y="400px" /><rect fill="rgb(255,255,255)" height="20px" width="20px" x="200px" y="400px" /><rect fill="rgb(255,255,0)" height="20px" width="20px" x="220px" y="400px" /><rect fill="rgb(255,255,255)" height="20px" width="20px" x="240px" y="400px" /><rect fill="rgb(255,255,0)" height="20px" width="20px" x="260px" y="400px" /><rect fill="rgb(255,255,255)" height="20px" width="20px" x="280px" y="400px" /><rect fill="rgb(255,255,0)" height="20px" width="20px" x="300px" y="400px" /><rect fill="rgb(255,255,255)" height="20px" width="20px" x="320px" y="400px" /><rect fill="rgb(255,255,0)" height="20px" width="20px" x="340px" y="400px" /><rect fill="rgb(192,192,192)" height="20px" width="20px" x="360px" y="400px" /><rect fill="rgb(255,255,0)" height="20px" width="20px" x="380px" y="400px" /><rect fill="rgb(192,192,192)" height="20px" width="20px" x="400px" y="400px" /><rect fill="rgb(255,255,0)" height="20px" width="20px" x="420px" y="400px" /><rect fill="rgb(192,192,192)" height="20px" width="20px" x="440px" y="400px" /><rect fill="rgb(255,255,0)" height="20px" width="20px" x="460px" y="400px" /><rect fill="rgb(255,255,255)" height="20px" width="20px" x="480px" y="400px" /><rect fill="rgb(0,0,0)" height="20px" width="20px" x="500px" y="400px" /><rect fill="rgb(0,0,0)" height="20px" width="20px" x="120px" y="420px" /><rect fill="rgb(0,0,0)" height="20px" width="20px" x="140px" y="420px" /><rect fill="rgb(255,255,255)" height="20px" width="20px" x="160px" y="420px" /><rect fill="rgb(255,255,255)" height="20px" width="20px" x="180px" y="420px" /><rect fill="rgb(255,255,255)" height="20px" width="20px" x="200px" y="420px" /><rect fill="rgb(255,255,255)" height="20px" width="20px" x="220px" y="420px" /><rect fill="rgb(255,255,0)" height="20px" width="20px" x="240px" y="420px" /><rect fill="rgb(255,255,255)" height="20px" width="20px" x="260px" y="420px" /><rect fill="rgb(255,255,0)" height="20px" width="20px" x="280px" y="420px" /><rect fill="rgb(255,255,255)" height="20px" width="20px" x="300px" y="420px" /><rect fill="rgb(255,255,0)" height="20px" width="20px" x="320px" y="420px" /><rect fill="rgb(192,192,192)" height="20px" width="20px" x="340px" y="420px" /><rect fill="rgb(255,255,0)" height="20px" width="20px" x="360px" y="420px" /><rect fill="rgb(192,192,192)" height="20px" width="20px" x="380px" y="420px" /><rect fill="rgb(255,255,0)" height="20px" width="20px" x="400px" y="420px" /><rect fill="rgb(192,192,192)" height="20px" width="20px" x="420px" y="420px" /><rect fill="rgb(255,255,0)" height="20px" width="20px" x="440px" y="420px" /><rect fill="rgb(192,192,192)" height="20px" width="20px" x="460px" y="420px" /><rect fill="rgb(0,0,0)" height="20px" width="20px" x="480px" y="420px" /><rect fill="rgb(0,0,0)" height="20px" width="20px" x="500px" y="420px" /><rect fill="rgb(0,0,0)" height="20px" width="20px" x="160px" y="440px" /><rect fill="rgb(0,0,0)" height="20px" width="20px" x="180px" y="440px" /><rect fill="rgb(0,0,0)" height="20px" width="20px" x="200px" y="440px" /><rect fill="rgb(255,255,0)" height="20px" width="20px" x="220px" y="440px" /><rect fill="rgb(255,255,255)" height="20px" width="20px" x="240px" y="440px" /><rect fill="rgb(255,255,0)" height="20px" width="20px" x="260px" y="440px" /><rect fill="rgb(255,255,255)" height="20px" width="20px" x="280px" y="440px" /><rect fill="rgb(255,255,0)" height="20px" width="20px" x="300px" y="440px" /><rect fill="rgb(255,255,255)" height="20px" width="20px" x="320px" y="440px" /><rect fill="rgb(255,255,0)" height="20px" width="20px" x="340px" y="440px" /><rect fill="rgb(192,192,192)" height="20px" width="20px" x="360px" y="440px" /><rect fill="rgb(255,255,0)" height="20px" width="20px" x="380px" y="440px" /><rect fill="rgb(192,192,192)" height="20px" width="20px" x="400px" y="440px" /><rect fill="rgb(0,0,0)" height="20px" width="20px" x="420px" y="440px" /><rect fill="rgb(0,0,0)" height="20px" width="20px" x="440px" y="440px" /><rect fill="rgb(0,0,0)" height="20px" width="20px" x="460px" y="440px" /><rect fill="rgb(0,0,0)" height="20px" width="20px" x="220px" y="460px" /><rect fill="rgb(0,0,0)" height="20px" width="20px" x="240px" y="460px" /><rect fill="rgb(0,0,0)" height="20px" width="20px" x="260px" y="460px" /><rect fill="rgb(0,0,0)" height="20px" width="20px" x="280px" y="460px" /><rect fill="rgb(0,0,0)" height="20px" width="20px" x="300px" y="460px" /><rect fill="rgb(0,0,0)" height="20px" width="20px" x="320px" y="460px" /><rect fill="rgb(0,0,0)" height="20px" width="20px" x="340px" y="460px" /><rect fill="rgb(0,0,0)" height="20px" width="20px" x="360px" y="460px" /><rect fill="rgb(0,0,0)" height="20px" width="20px" x="380px" y="460px" /><rect fill="rgb(0,0,0)" height="20px" width="20px" x="400px" y="460px" /><rect fill="rgb(0,0,0)" height="20px" width="20px" x="180px" y="480px" /><rect fill="rgb(0,0,0)" height="20px" width="20px" x="280px" y="480px" /><rect fill="rgb(128,128,0)" height="20px" width="20px" x="300px" y="480px" /><rect fill="rgb(192,192,192)" height="20px" width="20px" x="320px" y="480px" /><rect fill="rgb(0,0,0)" height="20px" width="20px" x="340px" y="480px" /><rect fill="rgb(0,0,0)" height="20px" width="20px" x="440px" y="480px" /><rect fill="rgb(0,0,0)" height="20px" width="20px" x="160px" y="500px" /><rect fill="rgb(0,0,0)" height="20px" width="20px" x="300px" y="500px" /><rect fill="rgb(0,0,0)" height="20px" width="20px" x="320px" y="500px" /><rect fill="rgb(0,0,0)" height="20px" width="20px" x="460px" y="500px" /><rect fill="rgb(0,0,0)" height="20px" width="20px" x="140px" y="520px" /><rect fill="rgb(0,0,0)" height="20px" width="20px" x="480px" y="520px" /><rect fill="rgb(128,128,128)" height="20px" width="20px" x="120px" y="540px" /><rect fill="rgb(128,128,128)" height="20px" width="20px" x="500px" y="540px" /><rect fill="rgb(128,128,128)" height="20px" width="20px" x="100px" y="560px" /><rect fill="rgb(128,128,128)" height="20px" width="20px" x="520px" y="560px" /><rect fill="rgb(128,128,128)" height="20px" width="20px" x="60px" y="600px" /><rect fill="rgb(128,128,128)" height="20px" width="20px" x="560px" y="600px" /></svg>